<?xml version="1.0" encoding="utf-8"?>
<!-- Generator: Adobe Illustrator 25.2.0, SVG Export Plug-In . SVG Version: 6.00 Build 0)  -->
<svg version="1.1" id="Layer_1" xmlns="http://www.w3.org/2000/svg" xmlns:xlink="http://www.w3.org/1999/xlink" x="0px" y="0px"
	 viewBox="0 0 2500 523.9" style="enable-background:new 0 0 2500 523.9;" xml:space="preserve">
<style type="text/css">
	.st0{fill:#5597F8;}
	.st1{fill:none;}
	.st2{font-family:'IBMPlexMono';}
	.st3{font-size:130px;}
</style>
<path d="M583.5,113.7H372.7l-7.5,6v187.5h58v-70.8l5.3-5.3h155.1c39.2,0,57.2-10.5,57.2-37.7v-42.9
	C640.8,124.3,622.7,113.7,583.5,113.7 M583.5,183c0,12.8-8.3,15.1-27.1,15.1H429.2l-6-5.3v-39.9l5.3-5.3h128
	c18.1,0,27.1,2.3,27.1,15.1L583.5,183z M747.7,149.1l50.5,73.8l-3,6.8H683.7l-28.6,35.4h165.7l12,6.8l25.6,35.4h67L778.6,111.5
	 M1412.7,269.6v-52.7l6-5.3h112.2v-33.1h-177.7v128.8h262.1v-33.1h-195.8 M1353.2,113.7h264.3v36.1h-264.3L1353.2,113.7z
	 M1058.7,148.4h213.1c-3-27.1-20.3-34.6-62.5-34.6h-152.9c-48.2,0-63.3,9-63.3,45.9v102.4c0,36.1,15.1,45.9,63.3,45.9h152.9
	c42.9,0,59.5-8.3,61-36.1h-211.6l-6-6v-113 M222.1,189H67.7l-4.5-5.3v-33.1l4.5-3.8h208.6l3-6.8c-6.8-18.1-25.6-27.1-59.5-27.1H74.5
	c-48.2,0-63.3,9-63.3,45.9v21.8c0,36.1,15.1,45.9,63.3,45.9h154.4l4.5,4.5v34.6l-3.8,5.3H6.7c0,0-5.3,3-5.3,3.8
	c3.8,25.6,21.1,32.4,62.5,32.4h158.1c48.2,0,64-9,64-45.9V235C286.1,198.8,270.3,189,222.1,189 M1783.9,113h-87.4l-4.5,9l96.4,70.8
	c18.1-10.5,38.4-21.1,59.5-31.6 M1862.2,245.5l85.1,61.7h87.4l3.8-8.3l-126.5-92.6C1895.4,219.1,1878,231.9,1862.2,245.5"/>
<path class="st0" d="M1771.1,307.2H1692l-6.8-10.5c53.5-52,292.9-273.4,813.3-296.7C2498.6,0,2062.5,15.1,1771.1,307.2"/>
<rect x="10" y="405.9" class="st1" width="1578" height="145"/>
<text transform="matrix(1 0 0 1 10 502.0598)" class="st2 st3">Launch Schedule</text>
</svg>
